<?xml version="1.0" encoding="UTF-8"?>
<svg width="256px" height="256px" viewBox="0 0 256 256" version="1.1" xmlns="http://www.w3.org/2000/svg" preserveAspectRatio="xMidYMid">
    <title>TypeScript</title>
    <g>
        <rect fill="#3178C6" x="0" y="0" width="256" height="256" rx="28"></rect>
        <path d="M56.6112759,129.610744 L56.6112759,142.230065 L92.0766151,142.230065 L92.0766151,183.236859 L115.047081,183.236859 L115.047081,142.230065 L150.512421,142.230065 L150.512421,129.610744 L56.6112759,129.610744 Z M193.847574,129.610744 L193.847574,143.989248 C189.127635,141.681536 183.809095,140.527679 177.891956,140.527679 C164.481851,140.527679 156.421471,146.326883 156.421471,157.125538 C156.421471,165.634737 160.392661,170.134321 173.802766,174.083705 L180.018862,175.988103 C187.032947,178.295815 189.87654,180.300213 189.87654,184.249597 C189.87654,189.299182 184.856139,192.407296 175.446004,192.407296 C168.880199,192.407296 162.066621,190.35174 155.798975,186.254014 L155.798975,201.27548 C162.066621,204.08143 169.231059,205.534129 177.442956,205.534129 C202.207447,205.534129 213.545592,195.58541 213.545592,182.137142 C213.545592,172.938486 208.973331,167.137124 196.262672,163.33658 L190.046575,161.432183 C183.809095,159.427785 180.51786,157.423387 180.51786,153.473994 C180.51786,148.873251 184.856139,145.765137 192.204336,145.765137 C198.270614,145.765137 204.187753,147.769535 210.104892,151.718919 L193.847574,129.610744 Z" fill="#FFFFFF" fill-rule="nonzero"></path>
    </g>
</svg>
